<svg xmlns="http://www.w3.org/2000/svg" xmlns:xlink="http://www.w3.org/1999/xlink" width="306" height="300" viewBox="0 0 306 300">
  <defs>
    <clipPath id="clip-path">
      <rect id="Rectangle_522" data-name="Rectangle 522" width="306" height="300" transform="translate(1270 5619)" fill="#4b0983" stroke="#707070" stroke-width="1"/>
    </clipPath>
    <clipPath id="clip-path-2">
      <rect id="Rectangle_521" data-name="Rectangle 521" width="218.256" height="392.242" fill="none"/>
    </clipPath>
  </defs>
  <g id="Mask_Group_25" data-name="Mask Group 25" transform="translate(-1270 -5619)" clip-path="url(#clip-path)">
    <g id="Group_714" data-name="Group 714" transform="translate(1300.872 5660.141)">
      <g id="Group_713" data-name="Group 713" transform="translate(0 0)" clip-path="url(#clip-path-2)">
        <path id="Path_210" data-name="Path 210" d="M216.538,99.776c-2.27-4.481-14.636-22.128-24.572-36.313-5.485-7.856-10.242-14.621-11.653-16.862-6.2-9.806-24.107-23.9-47.574-7.187A41.11,41.11,0,0,0,115.993,70.5c-.466,8.773,1.993,16.265,6.751,20.586l.233.218c-4.146,8.118-3.23,20.31-3.23,35.789,0,27.409.029,240.588.029,265.146h11.406c0-26.071,0-265.946.364-277.44.015-.378.029-.742.058-1.106v-.116l.029-.247q.022-.436.087-.873a12.584,12.584,0,0,1,3.026-7.434,29.066,29.066,0,0,1,19.233-9.34c9.311-.771,14.781-8.22,16.92-11.886a2.352,2.352,0,0,1,2.808-1.106c.9.306,1.8,1.018.757,2.662a45.976,45.976,0,0,1-6.852,8c-4.074,3.55-1.237,5.848,15,4.394s21.561-3.084,20.4-1.033-24.616,5.936-39.514,4.292c-11.828-1.309-19.393,1.848-21.9,5.863,1.571,1.193,2.561,1.906,2.793,2.08,12.672,10.4,28.166,22.419,35.8,27.089a15.922,15.922,0,0,0,8.38,2.168c6.547,0,15.232-4.394,20.79-9.995,8-8.089,11.159-20.586,7.172-28.442M171.961,81.794c-12.657-1.76-25.707-2.881-35.033-.6-5.383,1.324-9.136,3.593-11.741,6.736-3.739-3.448-5.747-9.849-5.354-17.182a36.9,36.9,0,0,1,15.043-27.933c7.362-5.237,13.865-7.129,19.422-7.129,8.744,0,15.174,4.685,18.942,8.482,3.463,3.652,5.616,9.718,5.761,16.382a32.918,32.918,0,0,1-7.041,21.241m4.423.626a37.264,37.264,0,0,0,6.474-21.968c-.029-1.208-.131-2.386-.262-3.55,1.848,2.662,4,5.732,6.3,9.006,4.423,6.329,9.631,13.763,14.112,20.281-6.809-.48-16.5-2.24-26.624-3.768M78.356,88.646c-7.449,8.831-24.82,29.388-26.987,31.614-7.842,8.045-19.917,12.119-35.353.917C-2.257,107.923-2.751,94.509,3.941,83.365c1.644-2.764,40.2-67.52,47.966-77.529,6.547-8.424,20.5-8.482,40.008,4.816,11.653,7.943,19.8,17.691,21.459,27,.611,3.463.64,5.848-.8,8.1a45.718,45.718,0,0,1-4.219,6.11,26.311,26.311,0,0,0-4.321,14.214c-.582,15.611-.189,293.254-.145,326.163H92.337c.029-33.025.247-329.029.2-338.122C92.512,47.4,89.559,44.389,85.7,42.4q-3.252-1.7-6.052-3.4l-.058-.044C64.506,29.783,59.123,21.17,58.585,14.39c-.044-.553.48-.975.887-.611a15.4,15.4,0,0,0,6.46,3.1c11.61,2.808,21.939,2.328,35.6,13.748,5.688,4.757,7.914,8.947,8.234,13.37a7.791,7.791,0,0,0,.32-4.7c-1.178-6.649-7.8-17.051-19.946-25.329-6.081-4.146-12.744-8.249-20-9.777-6.285-1.324-13.428.291-14.709,8.089-.742,4.481.931,9.049,3.23,12.628a35.926,35.926,0,0,0,3.8,4.845c1.164,1.266,2.982,2.488,3.87,3.986.524.887-.145,1.688-1.033,1.819a3.292,3.292,0,0,1-1.586-.218c-3.215-1.077-5.994-3.419-8.642-5.528a29.691,29.691,0,0,1-6.416-6.46c-1.062-1.6-2.313-1.018-2.08.073a9.135,9.135,0,0,0,.335,1.062c3.172,8.453,11.348,13.4,18.971,16.542,4.932,2.022,10.766,3.1,15.247,6.038,4.452,2.91,4.859,7.463,4.51,12.672a139.025,139.025,0,0,1-2.27,18.695,23.441,23.441,0,0,1-5,10.213" transform="translate(0.002 -0.006)" fill="#fff"/>
      </g>
    </g>
  </g>
</svg>
