<svg xmlns="http://www.w3.org/2000/svg" xmlns:xlink="http://www.w3.org/1999/xlink" width="97.404" height="58.929" viewBox="0 0 97.404 58.929">
  <defs>
    <linearGradient id="linear-gradient" y1="0.5" x2="1" y2="0.5" gradientUnits="objectBoundingBox">
      <stop offset="0" stop-color="#f0cc76"/>
      <stop offset="0.36" stop-color="#fae2a1"/>
      <stop offset="0.688" stop-color="#d1a856"/>
      <stop offset="1" stop-color="#f0cc76"/>
    </linearGradient>
  </defs>
  <g id="Group_1057" data-name="Group 1057" transform="translate(-131.114 -51.917)">
    <path id="Path_213" data-name="Path 213" d="M2869.9,231.714c-.968-.452-2.775,2.775-3.872,4.323s-3.55,3.807-4.518,3.1-.128-3.42.388-4.582,1.226-2.516.388-2.839-2.388,2.839-3.873,5.291-3.679,3.613-4.453,2.645.582-3.678,1.227-4.517,1.355-2.258.968-2.9-1.484.194-2.387.581a2.86,2.86,0,0,1-2.065-.194c.452-1.871-.322-2.517-.774-2.581a1.6,1.6,0,0,0-1.742,1.419,2.839,2.839,0,0,0,.774,2.323c-.9,2.968-3.034,6.323-4.712,5.871s-1.1-2.9-1.1-2.9a9.533,9.533,0,0,0,2.194-3.613c.258-.9-.516-1.678-2-.387s-2.259,4.516-2.259,4.516c-2,2.968-3.872,2.839-4.2,1.484s.71-3.1,1.42-4.13,1.614-2.258.969-2.71-1.355.064-2.646,1.355a13.458,13.458,0,0,1-4.2,2.258c.388-4.388-2.967-5.55-2.967-5.55a39.033,39.033,0,0,1,4.131-6c1.677-.322,3.678-2.9,2.452-3.419s-4.259,2.774-4.259,2.774a17.414,17.414,0,0,1-10.066-1.292c-.9-.323-2.129-1.033-2.71-.194s.451,2.645.838,4.646a15.263,15.263,0,0,1-.453,5.226c-.645-1.161-2.516-1.936-4.968-.517s-3.421,4.839-4.389,6.388-1.872,3.1-2.969,2.387-.515-2.71-.128-4.13,1.549-3.936.711-5.485-3.42-1.1-5.356.064-3.034,3.549-7.358,7.484-10.518,4.322-13.228,4.063-8.195-3.292-4.967-12.777,12.908-13.226,16.844-13.677,7.421.711,7.484,5.163-3.227,7.808-5.938,9.549-6.775,2.387-8.324,1.16-1.419-3.355-.193-5.936,5.292-4.323,5.873-4.516.97-.3.71-.645c-.193-.258-2.065-.388-4.775,1.225s-5.615,5.484-5.1,8.452,3.806,4.84,9.42,2.906a17.678,17.678,0,0,0,9.939-8.9c.968-2.387,1.615-9.808-6.516-9.809s-12.712,3.547-16.649,6.966-9.165,11.678-6.584,17.551,8.258,6.26,13.485,5.229,10.067-5.806,10.067-5.806c-.839,4.452,1.677,4.646,3.419,4.13s4.2-3.613,4.2-3.613c-.323,2.646,1.484,4,2.968,3.55s3.356-3.291,3.356-3.291c.58,3.162,2.387,3.485,4.645,2.9s4.324-3.871,5.745-7.871.84-9.873.84-9.873c3.226,1.033,8.711.776,8.711.776-.968.774-3.1,4.71-3.1,4.71s-3.291,0-4.2,2.516,1.548,4,1.548,4c-.9,2.839-.646,4.839.645,5.614s2.71.323,4.259-.774,2.581-4,2.581-4a8.72,8.72,0,0,0,3.356-1.613c-.775,1.678-1.743,6,.967,6.259s4.711-2.451,4.711-2.451c.709,2.646,3.807,2.517,5.678.9s3.1-5.613,3.1-5.613c.581.452,2.259.129,2.259.129-.9,1.807-2.13,4.84-1.485,6.2s2.581,1.162,3.871.581,3.55-3.484,3.55-3.484a13.261,13.261,0,0,0,.387,2.517,2.333,2.333,0,0,0,2.645.9,21.23,21.23,0,0,0,3.679-2.9c-.517,1.291-2.711,5.549-3.615,7.937s-.388,3.549.257,3.871,1.033-.193,1.033-.838a14.241,14.241,0,0,1,.71-3.549c.646-2.581,4.131-8.711,4.841-10S2870.869,232.166,2869.9,231.714Zm-63.237,1.539a19.184,19.184,0,0,1-3.486,5.29c-.645.71-2.323,2.194-3.033,1.42s-.257-2.452.775-4.388,3.28-4.42,4.776-5.033C2807.116,229.962,2807.245,231.7,2806.664,233.253Zm9.936,6.39c-1.872,1.161-2.646.838-3.033-.775s.84-4.452,1.872-5.485,3.163-2.387,4.517-.064C2819.956,233.319,2818.471,238.481,2816.6,239.643Zm9.357-4.967a2.648,2.648,0,0,1-.387-2.517,2.506,2.506,0,0,1,2.066-1.355C2827.119,231.836,2825.957,234.676,2825.957,234.676Zm2.387,5.872c-1.355.387-1.484-1.678-.838-3.743a14,14,0,0,0,3.484.452S2829.7,240.161,2828.344,240.548Zm3.033-4.581a7.441,7.441,0,0,1-3.613-.259s1.42-3.484,2-4.387C2829.765,231.321,2832.217,232.418,2831.377,235.967Z" transform="translate(-2641.764 -162.234)" fill="url(#linear-gradient)"/>
    <path id="Path_214" data-name="Path 214" d="M2850.23,252.092a7.407,7.407,0,0,0-.19,1.678,6.466,6.466,0,0,0,2.023,5,9.359,9.359,0,0,0,2.806,1.76l.334.152c.628.272,1.858.713,2.944,1.1l.086.031c.369.132.715.256,1.007.363,1.251.459,3.257,1.2,3.257,3.118,0,1.784-1.471,2.936-3.748,2.936a11.079,11.079,0,0,1-6.937-3.258l-2.874,4.239a14.313,14.313,0,0,0,9.231,3.864c4.9,0,10.179-2.629,10.179-8.4,0-3.364-1.906-5.762-5.663-7.128l-.023-.009c-.423-.173-1.114-.429-1.845-.7-.769-.285-1.555-.576-2.143-.811-1.12-.434-2.823-1.093-2.823-2.882,0-1.621,1.373-2.588,3.672-2.588a9.468,9.468,0,0,1,5.92,2.6l2.467-4.042a12.942,12.942,0,0,0-8.233-3.129,10.733,10.733,0,0,0-6.915,2.08,7.457,7.457,0,0,0-2.5,3.885v.138Z" transform="translate(-2641.764 -162.234)" fill="#fff"/>
    <rect id="Rectangle_530" data-name="Rectangle 530" width="5.889" height="26.317" transform="translate(159.906 84.065)" fill="#fff"/>
    <path id="Path_215" data-name="Path 215" d="M2811.365,246.3v26.317h5.851V262.44h9.827v-4.612h-9.827v-6.917h10.446V246.3Z" transform="translate(-2641.764 -162.234)" fill="#fff"/>
    <path id="Path_216" data-name="Path 216" d="M2836.27,272.616h5.889V250.872h6.886V246.3h-19.663v4.573h6.887Z" transform="translate(-2641.764 -162.234)" fill="#fff"/>
    <path id="Path_217" data-name="Path 217" d="M2791.913,257.434a5.476,5.476,0,0,0-3.633,1.584,6.173,6.173,0,0,0-1.937,4.043,5.926,5.926,0,0,1,3-1.3,17.539,17.539,0,0,1,2.579-.136l.615,0,0,4.782-.18.179c-.384.38-1.92,1.619-5.58,1.619-4.741,0-7.927-3.512-7.927-8.74s3.139-8.74,7.811-8.74a8.955,8.955,0,0,1,6.863,2.983l3.854-3.351c-1.015-1.124-4.047-4.437-10.717-4.437-6.636,0-13.778,4.239-13.778,13.545,0,9.333,7.1,13.584,13.7,13.584,6.79,0,9.941-2.87,11.456-4.249.082-.076.16-.147.233-.212V257.439H2793.7A17.475,17.475,0,0,0,2791.913,257.434Z" transform="translate(-2641.764 -162.234)" fill="#fff"/>
  </g>
</svg>
