<svg xmlns="http://www.w3.org/2000/svg" viewBox="0 0 566.7 138.2"><defs/><g fill="#fff"><path d="M495.41 60.1c2.36 2.28 5.13 3.51 6.78 4.25l.84.38c1.53.67 4.69 1.8 7.22 2.71 1.04.37 1.94.7 2.7.97 3.01 1.1 8.36 3.07 8.36 8.16 0 4.7-3.83 7.74-9.74 7.74-5.25 0-12.24-3.22-17.03-7.76l-6.52 9.61c3.53 3.13 11.66 9.12 22.12 9.12 11.85 0 24.61-6.33 24.61-20.22 0-8.18-4.46-13.78-13.64-17.12l-.07-.03c-1.04-.43-2.74-1.05-4.54-1.72-1.98-.73-3.87-1.44-5.3-2.01-2.88-1.12-7.28-2.81-7.28-7.57 0-4.31 3.57-6.88 9.55-6.88 4.69 0 10.37 2.43 14.5 6.13l5.56-9.11c-4.65-4.26-12.77-7.31-19.67-7.31-6.97 0-12.92 1.78-16.74 5.01-1.92 1.58-4.8 4.66-5.98 9.35v.69h-.15c-.24 1.13-.41 2.33-.41 3.64C490.58 53.15 492.16 57.06 495.41 60.1zM371.3 30.2H384.8V94.1H371.3zM408.61 69.02L432.86 69.02 432.86 58.63 408.61 58.63 408.61 40.57 434.38 40.57 434.38 30.19 395.17 30.19 395.17 94.12 408.61 94.12zM439.62 30.19L439.62 40.48 456.61 40.48 456.61 94.12 470.15 94.12 470.15 40.48 487.13 40.48 487.13 30.19zM346.72 57.66c-2.27.13-5.31.67-8.65 3.77-3.06 2.83-4.12 6.19-4.48 8.44 2.23-1.59 5.32-2.29 6.68-2.54 1.2-.22 3.31-.33 6.45-.34l2.02-.01-.01 12.5-.59.59c-1.26 1.24-5.15 4.14-14.11 4.14-11.99 0-20.05-8.86-20.05-22.06s7.94-22.06 19.77-22.06c6.74 0 12.3 2.35 16.96 7.17l8.77-7.62c-2.77-3.03-10.19-10.41-25.73-10.41-16.13 0-33.49 10.3-33.49 32.92 0 22.68 17.26 33.01 33.3 33.01 16.56 0 24.24-6.99 27.92-10.35l.41-.37V57.67l-10.8 0C350.17 57.62 348.41 57.56 346.72 57.66z"/></g><linearGradient id="a" x1="-204.4" x2="41.3" y1="10798.7" y2="10860.1" gradientTransform="matrix(1 0 0 1 248.4788 -10749.9932)" gradientUnits="userSpaceOnUse"><stop offset="0" stop-color="#ebc372"/><stop offset=".2" stop-color="#b29452"/><stop offset=".6" stop-color="#ebc372"/><stop offset="1" stop-color="#b29452"/></linearGradient><path fill="url(#a)" d="M293.94,66.67c-2.71-1.26-7.77,7.77-10.84,12.11c-3.07,4.34-9.94,10.66-12.65,8.67 c-2.71-1.99-0.36-9.58,1.08-12.83c1.45-3.25,3.43-7.05,1.08-7.95c-2.35-0.9-6.69,7.95-10.84,14.82 c-4.16,6.87-10.3,10.12-12.47,7.41c-2.17-2.71,1.63-10.3,3.43-12.65c1.81-2.35,3.79-6.32,2.71-8.13c-1.08-1.81-4.16,0.54-6.69,1.63 c-2.53,1.08-5.78-0.54-5.78-0.54c1.26-5.24-0.9-7.05-2.17-7.23c-1.26-0.18-4.16,0.36-4.88,3.98c-0.72,3.61,2.17,6.5,2.17,6.5 c-2.53,8.31-8.49,17.71-13.19,16.44c-4.7-1.26-3.07-8.13-3.07-8.13c2.89-2.71,5.42-7.59,6.14-10.12c0.72-2.53-1.45-4.7-5.6-1.08 c-4.16,3.61-6.32,12.65-6.32,12.65c-5.6,8.31-10.84,7.95-11.74,4.16c-0.9-3.79,1.99-8.67,3.98-11.56c1.99-2.89,4.52-6.32,2.71-7.59 c-1.81-1.26-3.79,0.18-7.41,3.79c-3.61,3.61-11.74,6.32-11.74,6.32c1.08-12.29-8.31-15.54-8.31-15.54 c3.43-7.05,11.56-16.8,11.56-16.8c4.7-0.9,10.3-8.13,6.87-9.58c-3.43-1.45-11.93,7.77-11.93,7.77 c-16.26,2.35-25.66-2.71-28.19-3.61c-2.53-0.9-5.96-2.89-7.59-0.54c-1.63,2.35,1.26,7.41,2.35,13.01 c1.08,5.6-1.26,14.64-1.26,14.64c-1.81-3.25-7.05-5.42-13.91-1.45c-6.87,3.98-9.58,13.55-12.29,17.89 c-2.71,4.34-5.24,8.67-8.31,6.69c-3.07-1.99-1.45-7.59-0.36-11.56c1.08-3.98,4.34-11.02,1.99-15.36c-2.35-4.34-9.58-3.07-15,0.18 c-5.42,3.25-8.49,9.94-20.6,20.96S57.42,96.12,49.83,95.4c-7.59-0.72-22.95-9.21-13.91-35.78s36.14-37.04,47.16-38.31 s20.78,1.99,20.96,14.45c0.18,12.47-9.03,21.86-16.62,26.74c-7.59,4.88-18.97,6.69-23.31,3.25c-4.34-3.43-3.98-9.4-0.54-16.62 C66.99,41.92,78.38,37.04,80,36.5c1.63-0.54,2.71-0.84,1.99-1.81c-0.54-0.72-5.78-1.08-13.37,3.43 c-7.59,4.52-15.72,15.36-14.27,23.67c1.45,8.31,10.66,13.55,26.38,8.13C96.45,64.5,106,51.28,108.55,44.99 c2.71-6.69,4.52-27.46-18.25-27.46c-22.77,0-35.59,9.94-46.62,19.51c-11.02,9.58-25.66,32.7-18.43,49.15 c7.23,16.44,23.13,17.53,37.76,14.64c14.64-2.89,28.19-16.26,28.19-16.26c-2.35,12.47,4.7,13.01,9.58,11.56 C105.66,94.68,112.53,86,112.53,86c-0.9,7.41,4.16,11.2,8.31,9.94c4.16-1.26,9.4-9.21,9.4-9.21c1.63,8.85,6.69,9.76,13.01,8.13 c6.32-1.63,12.11-10.84,16.08-22.04c3.98-11.2,2.35-27.64,2.35-27.64c9.03,2.89,24.39,2.17,24.39,2.17 c-2.71,2.17-8.67,13.19-8.67,13.19s-9.21,0-11.74,7.05c-2.53,7.05,4.34,11.2,4.34,11.2c-2.53,7.95-1.81,13.55,1.81,15.72 c3.61,2.17,7.59,0.9,11.93-2.17c4.34-3.07,7.23-11.2,7.23-11.2c5.24-1.08,9.4-4.52,9.4-4.52c-2.17,4.7-4.88,16.8,2.71,17.53 s13.19-6.87,13.19-6.87c1.99,7.41,10.66,7.05,15.9,2.53c5.24-4.52,8.67-15.72,8.67-15.72c1.63,1.26,6.32,0.36,6.32,0.36 c-2.53,5.06-5.96,13.55-4.16,17.35s7.23,3.25,10.84,1.63c3.61-1.63,9.94-9.76,9.94-9.76s0.36,5.24,1.08,7.05 c0.72,1.81,4.52,3.61,7.41,2.53c2.89-1.08,10.3-8.13,10.3-8.13c-1.45,3.61-7.59,15.54-10.12,22.22c-2.53,6.69-1.08,9.94,0.72,10.84 c1.81,0.9,2.89-0.54,2.89-2.35s0.18-2.71,1.99-9.94c1.81-7.23,11.56-24.39,13.55-28.01C293.57,74.26,296.65,67.94,293.94,66.67z M116.86,71.01c-1.63,4.34-5.71,10.36-9.76,14.82c-1.81,1.99-6.5,6.14-8.49,3.98c-1.99-2.17-0.72-6.87,2.17-12.29 c2.89-5.42,9.18-12.38,13.37-14.09C118.13,61.79,118.49,66.67,116.86,71.01z M144.69,88.9c-5.24,3.25-7.41,2.35-8.49-2.17 c-1.08-4.52,2.35-12.47,5.24-15.36s8.85-6.69,12.65-0.18C154.08,71.19,149.93,85.64,144.69,88.9z M170.89,74.98 c0,0-2.71-3.43-1.08-7.05c1.63-3.61,5.78-3.79,5.78-3.79C174.14,67.03,170.89,74.98,170.89,74.98z M177.57,91.42 c-3.79,1.08-4.16-4.7-2.35-10.48c0,0,5.42,1.45,9.76,1.26C184.98,82.21,181.37,90.34,177.57,91.42z M186.07,78.6 c0,0-6.32,1.08-10.12-0.72c0,0,3.98-9.76,5.6-12.29C181.55,65.59,188.42,68.66,186.07,78.6z"/></svg>
