<svg xmlns="http://www.w3.org/2000/svg" width="20.5" height="24.5"><defs/><g fill="none" fill-rule="evenodd"><path d="M0 0H66V46H0z" transform="translate(-24,-12)"/><path fill="#fff" d="m 4.441929,0 h 6.824087 c 1.921963,0 4.201468,0.06246425 5.726475,1.4072931 1.018608,0.8984294 1.553161,2.3298283 1.42964,3.8664488 -0.418423,5.2107501 -3.5353,8.1293261 -7.71495,8.1293261 H 7.3415017 c -0.5727356,0 -0.9524478,0.379536 -1.1139751,1.407644 L 5.2882755,20.78511 c -0.060881,0.38763 -0.2289182,0.61602 -0.5356089,0.643645 H 0.54891087 c -0.46645835,0 -0.63220855,-0.356838 -0.5102713,-1.129635 L 3.0657801,1.1336821 C 3.1870135,0.36563578 3.6071955,0 4.441929,0" transform="translate(-24,-12) translate(24,12)"/><path fill="#fff" fill-opacity=".9" d="m 8.8306408,6 h 6.8172242 c 3.659877,0 5.037962,1.8526367 4.825231,4.579069 -0.350855,4.494434 -3.068314,6.979632 -6.672589,6.979632 h -1.819909 c -0.493907,0 -0.826287,0.326573 -0.960893,1.214093 l -0.780539,5.152333 c -0.05068,0.334668 -0.226631,0.53121 -0.4910926,0.55514 H 5.4734076 c -0.4022346,0 -0.5452865,-0.307746 -0.440065,-0.974266 L 7.6438202,6.9777854 C 7.7483378,6.3153125 8.1106304,6 8.8306408,6" transform="translate(-24,-12) translate(24,12)"/><path fill="#f7f7f7" d="M 6,14.520352 7.1915715,6.9776622 C 7.2962651,6.3153653 7.6587336,6.0000528 8.378744,6.0000528 h 6.817225 c 1.128579,0 2.040205,0.1761316 2.754761,0.5005937 -0.684995,4.6376625 -3.684511,7.2143565 -7.612192,7.2143565 H 6.9726827 C 6.5298024,13.715003 6.1988298,13.941458 6,14.520352" transform="translate(-24,-12) translate(24,12)"/></g></svg>
