<svg xmlns="http://www.w3.org/2000/svg" width="65.7" height="23.7"><defs/><g fill="#fff" fill-rule="evenodd"><path d="M23.742902 13.529206l1.171844 1.519567 1.210593-1.519567h39.645229l-.000959 1.263-3.684767.000679c-2.177921 0-2.974732 1.107496-3.027095 2.292707l-.0028.127237c0 1.381196.845401 2.301156 2.363382 2.301156v0h1.746336c.572593 0 .819408.326539.819408.649527 0 .337107-.247592.644475-.819408.644475v0h-3.864532v1.668056h4.115418c1.263396 0 2.039787-.607834 2.355386-1.471648l-.000378 2.078213c0 0-1.036793.697395-2.235892.707656H41.582295l-1.321208-1.617507v1.617507H35.931589V21.02913c0 0-.591416.385422-1.870017.385422h-1.473656v2.375712h-6.555225l-1.17017-1.552158-1.188136 1.552158H12.820609V13.529206zm9.858152 1.264976h-4.265342v7.683151h1.981812v-2.42626h2.032628l.18264-.0035c1.628705-.06245 2.840893-.967177 2.840893-2.669204 0-1.462172-1.022453-2.584216-2.772631-2.584216zm-13.15809-.0013h-6.301147v7.683158h6.301147V20.807987H16.09314v-1.36477h4.248192V17.82571H16.09314v-1.314221h4.349824zm30.875619 0h-6.301147v7.683158h6.301147v-1.668056h-4.349824v-1.36477h4.227867V17.82571h-4.227867v-1.314221h4.349824zm-28.271314 0h-2.432802l3.141045 3.888963-3.067998 3.794195h2.397866l1.772198-2.366245 1.816342 2.366245h2.432417l-3.073646-3.841579 3.099758-3.841579h-2.337523l-1.877005 2.40414zm18.461979 0h-4.297103v7.683158h1.930997v-2.729547h.81305l2.315291 2.729547h2.359754l-2.540785-2.830638.136107-.01594c.998146-.149937 1.982272-1.021924 1.982272-2.343976 0-1.616799-1.275754-2.492599-2.699583-2.492599zm17.248754 0H54.99764c-2.255705 0-3.029886 1.188016-3.029886 2.419944 0 1.381196.8454 2.301156 2.363381 2.301156v0h1.746339c.572592 0 .819403.326539.819403.649527 0 .337107-.247591.644475-.819403.644475v0h-3.864535v1.668056h4.115421c1.700346 0 2.518569-1.100987 2.518569-2.445216 0-1.250332-.734275-2.205117-2.42645-2.205117v0h-1.829365c-.474929 0-.71142-.35124-.71142-.669746 0-.309877.191373-.634372.813052-.634372v0h3.252204zm7.011607.159321l.0017 4.14893C65.471258 18.336952 64.745926 17.82571 63.507683 17.82571v0h-1.829366c-.47493 0-.71142-.35124-.71142-.669746 0-.309877.191373-.634372.813051-.634372v0h3.252203zm-32.311474 1.579529c.555629 0 .952794.338745.952794.884573 0 .512773-.39516.884573-.959146.884573v0h-2.134259v-1.769146zm7.892313-.02025c.529503 0 .914683.411997.914683.808747 0 .51044-.499066.808753-.886099.808753v0h-2.23589v-1.6175zM6.7884247.08368878L8.1862171 3.283217V.08368878H13.481213L14.31332 2.3962129 15.120019.08368878H38.889063V1.2462703c0 0 1.249517-1.16258152 3.303021-1.16258152L49.904268.11049959 51.277931 3.268154V.08368878h4.431128L56.928637 1.897507V.08368878h4.471781V10.34474H56.928637L55.759875 8.525045v1.819695h-6.51031L48.594861 8.7272334H46.84467L46.200623 10.34474h-4.415065c-1.766975 0-2.896495-1.1388432-2.896495-1.1388432V10.34474H32.232207L30.910998 8.7272334V10.34474H6.1574002L5.5031478 8.7272334H3.758538L3.1089096 10.34474H.06586826V5.7955053L2.5288885.08368878zM5.9192014 1.3486585H3.4006487L.07857221 9.03181H2.2414154L2.8543798 7.493294h3.563451L7.0276194 9.03181h2.2104829zm26.2399576 0H27.862056V9.03181h1.930997V6.3022703h.813051l2.31529 2.7295397h2.359754L32.740363 6.2011794 32.87647 6.1852359c.998146-.1499275 1.982272-1.0219251 1.982272-2.3439714 0-1.6168059-1.275754-2.492606-2.699583-2.492606zm16.854932 0H46.495538L43.173462 9.03181h2.162843l.612964-1.538516h3.563451l.609788 1.538516h2.210483zm-29.892335-.0013H16.072814L14.327957 6.3123276 12.540293 1.3587158 9.4667726 1.3473612v7.683158H11.397769V3.3692449l2.052605 5.6612743h1.693488l2.046897-5.6612743v5.6612743h1.930997zm7.622355 0h-6.301147v7.683158h6.301147V7.3624635H22.394287V5.9976937h4.248192V4.3801867H22.394287V3.0659656h4.349824zm10.87456 0h-1.971649v7.683158h1.971649zm6.910935 0h-2.13426c-2.600365 0-3.836585 1.6226372-3.836585 3.8731728 0 2.1962784 1.250217 3.8099852 3.309372 3.8099852v0h.425582l.813051-1.6781654h-.508157c-1.2298 0-2.083444-.6249304-2.083444-2.1128649 0-1.2529926.746547-2.0724324 1.802152-2.0724324v0h2.212289zm10.483913 0h-2.455033v7.683158h1.930997V4.0769074l3.214093 4.9536118H60.07921V1.3473612H58.148213V6.174611zM4.6297531 3.13676L5.7159392 5.8252383H3.5403915zm43.0948899 0l1.086185 2.6884783H46.635281zM32.00036 3.0672564c.529502 0 .914682.4120032.914682.8087534 0 .5104341-.499066.8087535-.886098.8087535v0H29.793053V3.0672564z" transform="translate(-0.06586826,-11.083689) translate(0,11)"/></g></svg>
