<svg xmlns="http://www.w3.org/2000/svg" width="36" height="22"><defs/><g fill="none" fill-rule="evenodd"><path d="M0 0H66V46H0z" transform="translate(-15,-12)"/><path fill="#fff" fill-rule="nonzero" d="M 0.65423729,1.774495 V 0.98805433 H 0.81355932 V 0.82534247 H 0.41016949 V 0.98805433 H 0.56949152 V 1.774495 Z m 0.78305081,0 V 0.82534247 H 1.3152542 L 1.1728814,1.5033086 1.0305085,0.82534247 H 0.90508475 V 1.774495 h 0.0881356 V 1.0626306 L 1.1254237,1.6795797 h 0.091525 L 1.3491525,1.0626306 v 0.7186441 z" transform="translate(-15,-12) translate(51,30)"/><g fill="#fff"><path fill-opacity=".8" d="M 18.001001,2.5151508 C 20.443432,4.5327411 22,7.5845925 22,11 22,14.415408 20.443432,17.467259 18.001001,19.484849 15.556991,17.468087 14,14.415871 14,11 14,7.6249265 15.520021,4.604873 17.91284,2.5870621 Z" transform="translate(-15,-12) matrix(-1,0,0,1,51,12)"/><path d="m 25,0 c 6.075132,0 11,4.9248677 11,11 0,6.075132 -4.924868,11 -11,11 -2.65953,0 -5.098617,-0.943828 -7.000583,-2.514805 C 20.443254,17.467607 22,14.415602 22,11 22,7.5843977 20.443254,4.5323928 18.000583,2.5148055 19.901383,0.94382803 22.34047,0 25,0 Z" transform="translate(-15,-12) matrix(-1,0,0,1,51,12)"/><path fill-opacity=".5" d="m 11,0 c 2.659725,0 5.098974,0.94396633 7.001001,2.5151508 C 15.556991,4.5319126 14,7.5841289 14,11 c 0,3.415408 1.556568,6.467259 3.998999,8.484849 C 16.098124,21.056363 13.659261,22 11,22 4.9248677,22 0,17.075132 0,11 0,4.9248677 4.9248677,0 11,0 Z" transform="translate(-15,-12) matrix(-1,0,0,1,51,12)"/></g></g></svg>
