<svg xmlns="http://www.w3.org/2000/svg" width="43.7" height="13.8"><defs/><g fill="none" fill-rule="evenodd"><path d="M0 0H66V46H0z" transform="translate(-11.087388,-16.170208)"/><path fill="#fff" d="m 28.679224,0.17020787 c 1.369267,0 2.476644,0.29784433 3.174827,0.56760081 v 0 L 31.372659,3.6167192 31.052505,3.4751489 c -0.640502,-0.269568 -1.485987,-0.5389475 -2.636721,-0.5104826 -1.397528,0 -2.024287,0.5811734 -2.038804,1.1485857 0,0.6241536 0.758188,1.0354804 1.99622,1.6454957 2.039384,0.9502742 2.985329,2.1131867 2.971198,3.6308732 -0.02865,2.7658051 -2.446641,4.5530591 -6.160736,4.5530591 -1.587995,-0.01433 -3.117533,-0.341201 -3.947727,-0.709548 v 0 l 0.495329,-2.99277 0.466101,0.213016 c 1.150735,0.496909 1.907955,0.709171 3.321161,0.709171 1.019112,0 2.111777,-0.411704 2.125714,-1.3048601 0,-0.5815505 -0.46552,-1.0073925 -1.834981,-1.6598224 C 24.469412,7.5593863 22.677983,6.4958182 22.707017,4.580943 22.722115,1.9855502 25.183662,0.17020787 28.679224,0.17020787 Z M 21.236129,0.4118765 19.022344,13.743992 H 15.48265 L 17.696628,0.4118765 Z m 19.691789,0 2.855641,13.3319265 h -3.277416 c 0,0 -0.320735,-1.531824 -0.422356,-1.999892 v 0 h -4.544675 c -0.13143,0.354397 -0.742897,1.999892 -0.742897,1.999892 v 0 H 31.08212 L 36.339884,1.5180477 C 36.70417,0.65279109 37.345639,0.4118765 38.189963,0.4118765 v 0 z m -35.0872438,0 c 0.771931,0.0280879 1.3983023,0.26919095 1.6021245,1.1206864 v 0 L 8.6808305,7.6592961 9.0596341,9.5031033 12.526162,0.4118765 h 3.742936 L 10.70531,13.729854 H 6.9621807 L 3.8090427,2.1464409 C 2.7200761,1.5261869 1.4771463,1.0273631 0.08738832,0.68125596 v 0 L 0.14565091,0.4118765 Z M 38.43753,4.0142848 c -0.174787,0.4963444 -0.480424,1.3048598 -0.465713,1.2763949 0,0 -1.1217,2.9643051 -1.413207,3.7302174 v 0 h 2.942164 C 39.355215,8.3543291 38.684905,5.163059 38.684905,5.163059 v 0 z" transform="translate(-11.087388,-16.170208) translate(11,16)"/></g></svg>
